<svg width="24" height="24" viewBox="0 0 24 24" fill="none" xmlns="http://www.w3.org/2000/svg">
<path fill-rule="evenodd" clip-rule="evenodd" d="M12 0C8.741 0 8.333 0.014 7.053 0.072C2.695 0.272 0.273 2.69 0.073 7.052C0.014 8.333 0 8.741 0 12C0 15.259 0.014 15.668 0.072 16.948C0.272 21.306 2.69 23.728 7.052 23.928C8.333 23.986 8.741 24 12 24C15.259 24 15.668 23.986 16.948 23.928C21.302 23.728 23.73 21.31 23.927 16.948C23.986 15.668 24 15.259 24 12C24 8.741 23.986 8.333 23.928 7.053C23.732 2.699 21.311 0.273 16.949 0.073C15.668 0.014 15.259 0 12 0ZM12.0001 2.16299C15.2041 2.16299 15.5841 2.17499 16.8501 2.23299C20.1021 2.38099 21.6211 3.92399 21.7691 7.15199C21.8271 8.41699 21.8381 8.79699 21.8381 12.001C21.8381 15.206 21.8261 15.585 21.7691 16.85C21.6201 20.075 20.1051 21.621 16.8501 21.769C15.5841 21.827 15.2061 21.839 12.0001 21.839C8.79611 21.839 8.41611 21.827 7.15111 21.769C3.89111 21.62 2.38011 20.07 2.23211 16.849C2.17411 15.584 2.16211 15.205 2.16211 12C2.16211 8.79599 2.17511 8.41699 2.23211 7.15099C2.38111 3.92399 3.89611 2.37999 7.15111 2.23199C8.41711 2.17499 8.79611 2.16299 12.0001 2.16299ZM5.83805 12C5.83805 8.59699 8.59705 5.83799 12 5.83799C15.403 5.83799 18.162 8.59699 18.162 12C18.162 15.404 15.403 18.163 12 18.163C8.59705 18.163 5.83805 15.403 5.83805 12ZM11.9999 16.0001C9.79092 16.0001 7.99992 14.2101 7.99992 12.0001C7.99992 9.7911 9.79092 8.0001 11.9999 8.0001C14.2089 8.0001 15.9999 9.7911 15.9999 12.0001C15.9999 14.2101 14.2089 16.0001 11.9999 16.0001ZM16.965 5.59488C16.965 4.79988 17.61 4.15488 18.406 4.15488C19.201 4.15488 19.845 4.79988 19.845 5.59488C19.845 6.38988 19.201 7.03488 18.406 7.03488C17.61 7.03488 16.965 6.38988 16.965 5.59488Z" fill="#E7F0EB"/>
</svg>
