<svg width="100" height="88" viewBox="0 0 100 88" fill="none" xmlns="http://www.w3.org/2000/svg">
<path d="M98.0052 41.0088V44.0793C98.0052 65.1492 81.0499 82.2487 60.1575 82.2487H41.3648C37.4803 82.2487 33.7533 81.6664 30.2362 80.5546C28.2415 79.9723 26.2992 79.1782 24.5144 78.2783L19.5801 79.7606L1.94226 85.1075L6.14174 67.0021L7.50657 61.1258C6.98163 60.0141 6.4567 58.8494 6.03675 57.6318C4.40945 53.4496 3.51706 48.8439 3.51706 44.0793V41.0088C3.51706 19.9389 20.4724 2.89233 41.4173 2.89233H60.21C81.1024 2.89233 98.0577 19.9918 98.0577 41.0617L98.0052 41.0088Z" stroke="#1A382A" stroke-width="2" stroke-linecap="round" stroke-linejoin="round"/>
<path d="M65.7218 47.6791C67.7512 47.6791 69.3963 46.02 69.3963 43.9733C69.3963 41.9267 67.7512 40.2676 65.7218 40.2676C63.6924 40.2676 62.0472 41.9267 62.0472 43.9733C62.0472 46.02 63.6924 47.6791 65.7218 47.6791Z" stroke="#1A382A" stroke-linecap="round" stroke-linejoin="round"/>
<path d="M49.9737 47.6791C52.0031 47.6791 53.6483 46.02 53.6483 43.9733C53.6483 41.9267 52.0031 40.2676 49.9737 40.2676C47.9443 40.2676 46.2992 41.9267 46.2992 43.9733C46.2992 46.02 47.9443 47.6791 49.9737 47.6791Z" stroke="#1A382A" stroke-linecap="round" stroke-linejoin="round"/>
<path d="M34.2257 47.6791C36.2551 47.6791 37.9002 46.02 37.9002 43.9733C37.9002 41.9267 36.2551 40.2676 34.2257 40.2676C32.1963 40.2676 30.5511 41.9267 30.5511 43.9733C30.5511 46.02 32.1963 47.6791 34.2257 47.6791Z" stroke="#1A382A" stroke-linecap="round" stroke-linejoin="round"/>
</svg>
