<svg width="135" height="18" viewBox="0 0 135 18" fill="none" xmlns="http://www.w3.org/2000/svg">
<path d="M21.96 0.508V0.987999C21.48 1.004 21.112 1.068 20.856 1.18C20.6 1.276 20.424 1.468 20.328 1.756C20.248 2.028 20.208 2.46 20.208 3.052V14.956C20.208 15.532 20.256 15.964 20.352 16.252C20.448 16.54 20.616 16.732 20.856 16.828C21.112 16.924 21.48 16.988 21.96 17.02V17.5C21.496 17.468 20.896 17.452 20.16 17.452C19.44 17.436 18.704 17.428 17.952 17.428C17.136 17.428 16.368 17.436 15.648 17.452C14.944 17.452 14.368 17.468 13.92 17.5V17.02C14.464 16.988 14.872 16.924 15.144 16.828C15.432 16.732 15.624 16.54 15.72 16.252C15.816 15.964 15.864 15.532 15.864 14.956V2.044L16.08 2.02L10.08 17.5H9.696L3.072 2.068V13.18C3.072 14.156 3.12 14.908 3.216 15.436C3.312 15.948 3.528 16.316 3.864 16.54C4.2 16.764 4.728 16.924 5.448 17.02V17.5C5.144 17.468 4.736 17.452 4.224 17.452C3.728 17.436 3.256 17.428 2.808 17.428C2.456 17.428 2.088 17.436 1.704 17.452C1.336 17.452 1.024 17.468 0.768 17.5V17.02C1.28 16.924 1.656 16.772 1.896 16.564C2.152 16.34 2.32 15.996 2.4 15.532C2.48 15.052 2.52 14.396 2.52 13.564V3.052C2.52 2.46 2.48 2.028 2.4 1.756C2.32 1.468 2.152 1.276 1.896 1.18C1.64 1.068 1.264 1.004 0.768 0.987999V0.508C1.024 0.524 1.336 0.539999 1.704 0.555999C2.088 0.571999 2.456 0.579999 2.808 0.579999C3.624 0.579999 4.408 0.571999 5.16 0.555999C5.912 0.539999 6.592 0.524 7.2 0.508L12.096 11.932L11.424 12.604L16.056 0.579999C16.36 0.579999 16.672 0.579999 16.992 0.579999C17.328 0.579999 17.648 0.579999 17.952 0.579999C18.704 0.579999 19.44 0.571999 20.16 0.555999C20.896 0.539999 21.496 0.524 21.96 0.508ZM33.1622 4.732C34.3622 4.732 35.4102 4.948 36.3062 5.38C37.2182 5.796 37.9222 6.484 38.4182 7.444C38.9302 8.404 39.1862 9.684 39.1862 11.284C39.1862 12.884 38.9302 14.164 38.4182 15.124C37.9222 16.084 37.2182 16.78 36.3062 17.212C35.4102 17.628 34.3622 17.836 33.1622 17.836C31.9782 17.836 30.9302 17.628 30.0182 17.212C29.1222 16.78 28.4182 16.084 27.9062 15.124C27.3942 14.164 27.1382 12.884 27.1382 11.284C27.1382 9.684 27.3942 8.404 27.9062 7.444C28.4182 6.484 29.1222 5.796 30.0182 5.38C30.9302 4.948 31.9782 4.732 33.1622 4.732ZM33.1622 5.212C32.6022 5.212 32.1302 5.692 31.7462 6.652C31.3782 7.596 31.1942 9.14 31.1942 11.284C31.1942 13.428 31.3782 14.98 31.7462 15.94C32.1302 16.884 32.6022 17.356 33.1622 17.356C33.7382 17.356 34.2102 16.884 34.5782 15.94C34.9462 14.98 35.1302 13.428 35.1302 11.284C35.1302 9.14 34.9462 7.596 34.5782 6.652C34.2102 5.692 33.7382 5.212 33.1622 5.212ZM53.8337 4.732C54.5377 4.732 55.0977 4.82 55.5137 4.996C55.9457 5.172 56.2737 5.396 56.4977 5.668C56.7537 5.972 56.9377 6.364 57.0497 6.844C57.1777 7.324 57.2417 7.972 57.2417 8.788V15.268C57.2417 15.94 57.3457 16.396 57.5537 16.636C57.7777 16.876 58.1537 16.996 58.6817 16.996V17.5C58.3617 17.484 57.8817 17.468 57.2417 17.452C56.6177 17.42 56.0097 17.404 55.4177 17.404C54.7617 17.404 54.1297 17.42 53.5217 17.452C52.9137 17.468 52.4577 17.484 52.1537 17.5V16.996C52.6017 16.996 52.9137 16.876 53.0897 16.636C53.2657 16.396 53.3537 15.94 53.3537 15.268V7.636C53.3537 7.268 53.3137 6.956 53.2337 6.7C53.1537 6.428 53.0177 6.228 52.8257 6.1C52.6337 5.956 52.3617 5.884 52.0097 5.884C51.6417 5.884 51.2977 5.98 50.9777 6.172C50.6737 6.364 50.4257 6.636 50.2337 6.988C50.0577 7.324 49.9697 7.708 49.9697 8.14V15.268C49.9697 15.94 50.0577 16.396 50.2337 16.636C50.4097 16.876 50.7217 16.996 51.1697 16.996V17.5C50.8657 17.484 50.4257 17.468 49.8497 17.452C49.2737 17.42 48.6897 17.404 48.0977 17.404C47.4417 17.404 46.7857 17.42 46.1297 17.452C45.4737 17.468 44.9777 17.484 44.6417 17.5V16.996C45.1697 16.996 45.5377 16.876 45.7457 16.636C45.9697 16.396 46.0817 15.94 46.0817 15.268V7.684C46.0817 6.964 45.9777 6.436 45.7697 6.1C45.5617 5.748 45.1857 5.572 44.6417 5.572V5.068C45.1537 5.116 45.6497 5.14 46.1297 5.14C46.8497 5.14 47.5297 5.116 48.1697 5.068C48.8257 5.004 49.4257 4.916 49.9697 4.804V6.748C50.3537 6.012 50.8737 5.492 51.5297 5.188C52.2017 4.884 52.9697 4.732 53.8337 4.732ZM68.4531 4.732C69.1571 4.732 69.7651 4.812 70.2771 4.972C70.7891 5.132 71.1651 5.284 71.4051 5.428C71.9651 5.78 72.3011 5.556 72.4131 4.756H72.9171C72.8851 5.22 72.8611 5.78 72.8451 6.436C72.8291 7.076 72.8211 7.94 72.8211 9.028H72.3171C72.2531 8.436 72.1091 7.852 71.8851 7.276C71.6771 6.7 71.3651 6.228 70.9491 5.86C70.5331 5.476 69.9891 5.284 69.3171 5.284C68.8851 5.284 68.5171 5.412 68.2131 5.668C67.9251 5.924 67.7811 6.276 67.7811 6.724C67.7811 7.204 67.9251 7.628 68.2131 7.996C68.5011 8.364 68.8691 8.716 69.3171 9.052C69.7811 9.388 70.2451 9.748 70.7091 10.132C71.2211 10.516 71.6771 10.908 72.0771 11.308C72.4931 11.692 72.8211 12.116 73.0611 12.58C73.3171 13.028 73.4451 13.572 73.4451 14.212C73.4451 14.932 73.2291 15.564 72.7971 16.108C72.3651 16.652 71.7971 17.076 71.0931 17.38C70.3891 17.684 69.6051 17.836 68.7411 17.836C68.2131 17.836 67.7491 17.78 67.3491 17.668C66.9651 17.572 66.6451 17.444 66.3891 17.284C66.1491 17.172 65.9331 17.076 65.7411 16.996C65.5651 16.916 65.3891 16.86 65.2131 16.828C65.0531 16.812 64.9171 16.884 64.8051 17.044C64.6931 17.204 64.6051 17.412 64.5411 17.668H64.0371C64.0691 17.156 64.0931 16.532 64.1091 15.796C64.1251 15.06 64.1331 14.084 64.1331 12.868H64.6371C64.7331 13.732 64.9091 14.492 65.1651 15.148C65.4371 15.804 65.7971 16.324 66.2451 16.708C66.6931 17.076 67.2211 17.26 67.8291 17.26C68.1011 17.26 68.3491 17.212 68.5731 17.116C68.8131 17.004 69.0051 16.836 69.1491 16.612C69.3091 16.388 69.3891 16.1 69.3891 15.748C69.3891 15.044 69.1651 14.46 68.7171 13.996C68.2691 13.516 67.7171 12.996 67.0611 12.436C66.5491 12.004 66.0691 11.58 65.6211 11.164C65.1891 10.748 64.8291 10.292 64.5411 9.796C64.2691 9.3 64.1331 8.74 64.1331 8.116C64.1331 7.396 64.3331 6.788 64.7331 6.292C65.1491 5.78 65.6851 5.396 66.3411 5.14C66.9971 4.868 67.7011 4.732 68.4531 4.732ZM84.0722 1.156V5.068H86.6642V5.548H84.0722V15.364C84.0722 15.764 84.1442 16.052 84.2882 16.228C84.4322 16.388 84.6482 16.468 84.9362 16.468C85.1762 16.468 85.4242 16.388 85.6802 16.228C85.9522 16.068 86.2002 15.796 86.4242 15.412L86.8082 15.652C86.5042 16.308 86.0802 16.836 85.5362 17.236C85.0082 17.636 84.3122 17.836 83.4482 17.836C82.9202 17.836 82.4482 17.764 82.0322 17.62C81.6322 17.492 81.2962 17.292 81.0242 17.02C80.6722 16.668 80.4402 16.236 80.3282 15.724C80.2322 15.196 80.1842 14.516 80.1842 13.684V5.548H78.2642V5.068H80.1842V2.068C80.9362 2.068 81.6242 1.996 82.2482 1.852C82.8882 1.708 83.4962 1.476 84.0722 1.156ZM97.5291 4.732C98.9371 4.732 100.041 5.148 100.841 5.98C101.641 6.812 102.041 8.18 102.041 10.084H94.3371L94.3131 9.628H98.7771C98.8091 8.844 98.7771 8.124 98.6811 7.468C98.5851 6.796 98.4251 6.26 98.2011 5.86C97.9931 5.46 97.7131 5.26 97.3611 5.26C96.8811 5.26 96.4731 5.604 96.1371 6.292C95.8011 6.98 95.5931 8.148 95.5131 9.796L95.6091 9.964C95.5771 10.14 95.5611 10.324 95.5611 10.516C95.5611 10.692 95.5611 10.884 95.5611 11.092C95.5611 12.196 95.7051 13.076 95.9931 13.732C96.2971 14.388 96.6731 14.852 97.1211 15.124C97.5691 15.396 98.0331 15.532 98.5131 15.532C98.7851 15.532 99.0891 15.492 99.4251 15.412C99.7611 15.332 100.113 15.164 100.481 14.908C100.849 14.652 101.201 14.276 101.537 13.78L101.945 13.924C101.769 14.548 101.465 15.164 101.033 15.772C100.617 16.364 100.081 16.86 99.4251 17.26C98.7691 17.644 97.9771 17.836 97.0491 17.836C95.9931 17.836 95.0491 17.62 94.2171 17.188C93.3851 16.74 92.7211 16.044 92.2251 15.1C91.7451 14.14 91.5051 12.892 91.5051 11.356C91.5051 9.836 91.7691 8.588 92.2971 7.612C92.8251 6.636 93.5451 5.916 94.4571 5.452C95.3691 4.972 96.3931 4.732 97.5291 4.732ZM115.723 4.732C116.267 4.732 116.699 4.852 117.019 5.092C117.339 5.316 117.571 5.612 117.715 5.98C117.859 6.332 117.931 6.684 117.931 7.036C117.931 7.692 117.739 8.22 117.355 8.62C116.987 9.02 116.499 9.22 115.891 9.22C115.251 9.22 114.763 9.076 114.427 8.788C114.091 8.484 113.923 8.084 113.923 7.588C113.923 7.092 114.027 6.684 114.235 6.364C114.459 6.044 114.731 5.772 115.051 5.548C114.811 5.516 114.579 5.548 114.355 5.644C114.099 5.708 113.859 5.828 113.635 6.004C113.411 6.18 113.219 6.388 113.059 6.628C112.899 6.868 112.771 7.132 112.675 7.42C112.595 7.692 112.555 7.972 112.555 8.26V15.028C112.555 15.796 112.723 16.316 113.059 16.588C113.411 16.86 113.963 16.996 114.715 16.996V17.5C114.347 17.484 113.803 17.468 113.083 17.452C112.363 17.42 111.619 17.404 110.851 17.404C110.163 17.404 109.467 17.42 108.763 17.452C108.075 17.468 107.563 17.484 107.227 17.5V16.996C107.755 16.996 108.123 16.876 108.331 16.636C108.555 16.396 108.667 15.94 108.667 15.268V7.684C108.667 6.964 108.563 6.436 108.355 6.1C108.147 5.748 107.771 5.572 107.227 5.572V5.068C107.739 5.116 108.235 5.14 108.715 5.14C109.435 5.14 110.115 5.116 110.755 5.068C111.411 5.004 112.011 4.916 112.555 4.804V6.772C112.747 6.356 112.995 5.996 113.299 5.692C113.619 5.388 113.979 5.156 114.379 4.996C114.795 4.82 115.243 4.732 115.723 4.732ZM125.938 17.668C125.202 17.668 124.594 17.532 124.114 17.26C123.634 16.972 123.282 16.596 123.058 16.132C122.834 15.668 122.722 15.172 122.722 14.644C122.722 13.972 122.874 13.42 123.178 12.988C123.498 12.556 123.906 12.212 124.402 11.956C124.898 11.684 125.418 11.46 125.962 11.284C126.506 11.108 127.026 10.94 127.522 10.78C128.018 10.604 128.418 10.404 128.722 10.18C129.026 9.94 129.178 9.636 129.178 9.268V7.276C129.178 6.924 129.122 6.596 129.01 6.292C128.914 5.972 128.73 5.716 128.458 5.524C128.202 5.316 127.842 5.212 127.378 5.212C127.09 5.212 126.81 5.252 126.538 5.332C126.266 5.412 126.026 5.54 125.818 5.716C126.33 5.892 126.706 6.156 126.946 6.508C127.202 6.86 127.33 7.252 127.33 7.684C127.33 8.276 127.122 8.748 126.706 9.1C126.306 9.436 125.826 9.604 125.266 9.604C124.658 9.604 124.186 9.412 123.85 9.028C123.53 8.644 123.37 8.18 123.37 7.636C123.37 7.156 123.49 6.756 123.73 6.436C123.97 6.1 124.322 5.796 124.786 5.524C125.25 5.252 125.81 5.052 126.466 4.924C127.122 4.796 127.818 4.732 128.554 4.732C129.306 4.732 129.994 4.812 130.618 4.972C131.258 5.116 131.802 5.412 132.25 5.86C132.602 6.228 132.826 6.676 132.922 7.204C133.018 7.732 133.066 8.404 133.066 9.22V15.7C133.066 16.1 133.098 16.38 133.162 16.54C133.242 16.684 133.362 16.756 133.522 16.756C133.666 16.756 133.802 16.716 133.93 16.636C134.058 16.556 134.186 16.468 134.314 16.372L134.578 16.78C134.226 17.068 133.81 17.292 133.33 17.452C132.85 17.596 132.33 17.668 131.77 17.668C131.13 17.668 130.626 17.588 130.258 17.428C129.906 17.252 129.65 17.02 129.49 16.732C129.346 16.444 129.266 16.124 129.25 15.772C128.898 16.348 128.458 16.812 127.93 17.164C127.402 17.5 126.738 17.668 125.938 17.668ZM127.93 15.94C128.186 15.94 128.41 15.892 128.602 15.796C128.81 15.684 129.002 15.5 129.178 15.244V10.252C129.05 10.476 128.874 10.692 128.65 10.9C128.442 11.092 128.218 11.292 127.978 11.5C127.738 11.692 127.506 11.908 127.282 12.148C127.074 12.388 126.898 12.676 126.754 13.012C126.626 13.332 126.562 13.724 126.562 14.188C126.562 14.812 126.69 15.26 126.946 15.532C127.202 15.804 127.53 15.94 127.93 15.94Z" fill="#1A382A"/>
</svg>
